<?xml version="1.0" encoding="utf-8" standalone="no"?>
<!DOCTYPE svg PUBLIC "-//W3C//DTD SVG 1.1//EN"
  "http://www.w3.org/Graphics/SVG/1.1/DTD/svg11.dtd">
<!-- Created with matplotlib (https://matplotlib.org/) -->
<svg height="288pt" version="1.1" viewBox="0 0 432 288" width="432pt" xmlns="http://www.w3.org/2000/svg" xmlns:xlink="http://www.w3.org/1999/xlink">
 <defs>
  <style type="text/css">
*{stroke-linecap:butt;stroke-linejoin:round;}
  </style>
 </defs>
 <g id="figure_1">
  <g id="patch_1">
   <path d="M 0 288 
L 432 288 
L 432 0 
L 0 0 
z
" style="fill:#ffffff;"/>
  </g>
  <g id="axes_1">
   <g id="patch_2">
    <path d="M 54 230.4 
L 388.8 230.4 
L 388.8 34.56 
L 54 34.56 
z
" style="fill:#ffffff;"/>
   </g>
   <g id="matplotlib.axis_1">
    <g id="xtick_1">
     <g id="line2d_1">
      <path clip-path="url(#pc86364cfdb)" d="M 89.614851 230.4 
L 89.614851 34.56 
" style="fill:none;stroke:#b0b0b0;stroke-linecap:square;stroke-width:0.8;"/>
     </g>
     <g id="line2d_2">
      <defs>
       <path d="M 0 0 
L 0 3.5 
" id="m113a3f97f5" style="stroke:#000000;stroke-width:0.8;"/>
      </defs>
      <g>
       <use style="stroke:#000000;stroke-width:0.8;" x="89.614851" xlink:href="#m113a3f97f5" y="230.4"/>
      </g>
     </g>
     <g id="text_1">
      <!-- 2014-07 -->
      <defs>
       <path d="M 19.1875 8.296875 
L 53.609375 8.296875 
L 53.609375 0 
L 7.328125 0 
L 7.328125 8.296875 
Q 12.9375 14.109375 22.625 23.890625 
Q 32.328125 33.6875 34.8125 36.53125 
Q 39.546875 41.84375 41.421875 45.53125 
Q 43.3125 49.21875 43.3125 52.78125 
Q 43.3125 58.59375 39.234375 62.25 
Q 35.15625 65.921875 28.609375 65.921875 
Q 23.96875 65.921875 18.8125 64.3125 
Q 13.671875 62.703125 7.8125 59.421875 
L 7.8125 69.390625 
Q 13.765625 71.78125 18.9375 73 
Q 24.125 74.21875 28.421875 74.21875 
Q 39.75 74.21875 46.484375 68.546875 
Q 53.21875 62.890625 53.21875 53.421875 
Q 53.21875 48.921875 51.53125 44.890625 
Q 49.859375 40.875 45.40625 35.40625 
Q 44.1875 33.984375 37.640625 27.21875 
Q 31.109375 20.453125 19.1875 8.296875 
z
" id="DejaVuSans-50"/>
       <path d="M 31.78125 66.40625 
Q 24.171875 66.40625 20.328125 58.90625 
Q 16.5 51.421875 16.5 36.375 
Q 16.5 21.390625 20.328125 13.890625 
Q 24.171875 6.390625 31.78125 6.390625 
Q 39.453125 6.390625 43.28125 13.890625 
Q 47.125 21.390625 47.125 36.375 
Q 47.125 51.421875 43.28125 58.90625 
Q 39.453125 66.40625 31.78125 66.40625 
z
M 31.78125 74.21875 
Q 44.046875 74.21875 50.515625 64.515625 
Q 56.984375 54.828125 56.984375 36.375 
Q 56.984375 17.96875 50.515625 8.265625 
Q 44.046875 -1.421875 31.78125 -1.421875 
Q 19.53125 -1.421875 13.0625 8.265625 
Q 6.59375 17.96875 6.59375 36.375 
Q 6.59375 54.828125 13.0625 64.515625 
Q 19.53125 74.21875 31.78125 74.21875 
z
" id="DejaVuSans-48"/>
       <path d="M 12.40625 8.296875 
L 28.515625 8.296875 
L 28.515625 63.921875 
L 10.984375 60.40625 
L 10.984375 69.390625 
L 28.421875 72.90625 
L 38.28125 72.90625 
L 38.28125 8.296875 
L 54.390625 8.296875 
L 54.390625 0 
L 12.40625 0 
z
" id="DejaVuSans-49"/>
       <path d="M 37.796875 64.3125 
L 12.890625 25.390625 
L 37.796875 25.390625 
z
M 35.203125 72.90625 
L 47.609375 72.90625 
L 47.609375 25.390625 
L 58.015625 25.390625 
L 58.015625 17.1875 
L 47.609375 17.1875 
L 47.609375 0 
L 37.796875 0 
L 37.796875 17.1875 
L 4.890625 17.1875 
L 4.890625 26.703125 
z
" id="DejaVuSans-52"/>
       <path d="M 4.890625 31.390625 
L 31.203125 31.390625 
L 31.203125 23.390625 
L 4.890625 23.390625 
z
" id="DejaVuSans-45"/>
       <path d="M 8.203125 72.90625 
L 55.078125 72.90625 
L 55.078125 68.703125 
L 28.609375 0 
L 18.3125 0 
L 43.21875 64.59375 
L 8.203125 64.59375 
z
" id="DejaVuSans-55"/>
      </defs>
      <g transform="translate(52.390031 264.871846)rotate(-30)scale(0.1 -0.1)">
       <use xlink:href="#DejaVuSans-50"/>
       <use x="63.623047" xlink:href="#DejaVuSans-48"/>
       <use x="127.246094" xlink:href="#DejaVuSans-49"/>
       <use x="190.869141" xlink:href="#DejaVuSans-52"/>
       <use x="254.492188" xlink:href="#DejaVuSans-45"/>
       <use x="290.576172" xlink:href="#DejaVuSans-48"/>
       <use x="354.199219" xlink:href="#DejaVuSans-55"/>
      </g>
     </g>
    </g>
    <g id="xtick_2">
     <g id="line2d_3">
      <path clip-path="url(#pc86364cfdb)" d="M 131.314709 230.4 
L 131.314709 34.56 
" style="fill:none;stroke:#b0b0b0;stroke-linecap:square;stroke-width:0.8;"/>
     </g>
     <g id="line2d_4">
      <g>
       <use style="stroke:#000000;stroke-width:0.8;" x="131.314709" xlink:href="#m113a3f97f5" y="230.4"/>
      </g>
     </g>
     <g id="text_2">
      <!-- 2015-01 -->
      <defs>
       <path d="M 10.796875 72.90625 
L 49.515625 72.90625 
L 49.515625 64.59375 
L 19.828125 64.59375 
L 19.828125 46.734375 
Q 21.96875 47.46875 24.109375 47.828125 
Q 26.265625 48.1875 28.421875 48.1875 
Q 40.625 48.1875 47.75 41.5 
Q 54.890625 34.8125 54.890625 23.390625 
Q 54.890625 11.625 47.5625 5.09375 
Q 40.234375 -1.421875 26.90625 -1.421875 
Q 22.3125 -1.421875 17.546875 -0.640625 
Q 12.796875 0.140625 7.71875 1.703125 
L 7.71875 11.625 
Q 12.109375 9.234375 16.796875 8.0625 
Q 21.484375 6.890625 26.703125 6.890625 
Q 35.15625 6.890625 40.078125 11.328125 
Q 45.015625 15.765625 45.015625 23.390625 
Q 45.015625 31 40.078125 35.4375 
Q 35.15625 39.890625 26.703125 39.890625 
Q 22.75 39.890625 18.8125 39.015625 
Q 14.890625 38.140625 10.796875 36.28125 
z
" id="DejaVuSans-53"/>
      </defs>
      <g transform="translate(94.089888 264.871846)rotate(-30)scale(0.1 -0.1)">
       <use xlink:href="#DejaVuSans-50"/>
       <use x="63.623047" xlink:href="#DejaVuSans-48"/>
       <use x="127.246094" xlink:href="#DejaVuSans-49"/>
       <use x="190.869141" xlink:href="#DejaVuSans-53"/>
       <use x="254.492188" xlink:href="#DejaVuSans-45"/>
       <use x="290.576172" xlink:href="#DejaVuSans-48"/>
       <use x="354.199219" xlink:href="#DejaVuSans-49"/>
      </g>
     </g>
    </g>
    <g id="xtick_3">
     <g id="line2d_5">
      <path clip-path="url(#pc86364cfdb)" d="M 172.334678 230.4 
L 172.334678 34.56 
" style="fill:none;stroke:#b0b0b0;stroke-linecap:square;stroke-width:0.8;"/>
     </g>
     <g id="line2d_6">
      <g>
       <use style="stroke:#000000;stroke-width:0.8;" x="172.334678" xlink:href="#m113a3f97f5" y="230.4"/>
      </g>
     </g>
     <g id="text_3">
      <!-- 2015-07 -->
      <g transform="translate(135.109857 264.871846)rotate(-30)scale(0.1 -0.1)">
       <use xlink:href="#DejaVuSans-50"/>
       <use x="63.623047" xlink:href="#DejaVuSans-48"/>
       <use x="127.246094" xlink:href="#DejaVuSans-49"/>
       <use x="190.869141" xlink:href="#DejaVuSans-53"/>
       <use x="254.492188" xlink:href="#DejaVuSans-45"/>
       <use x="290.576172" xlink:href="#DejaVuSans-48"/>
       <use x="354.199219" xlink:href="#DejaVuSans-55"/>
      </g>
     </g>
    </g>
    <g id="xtick_4">
     <g id="line2d_7">
      <path clip-path="url(#pc86364cfdb)" d="M 214.034536 230.4 
L 214.034536 34.56 
" style="fill:none;stroke:#b0b0b0;stroke-linecap:square;stroke-width:0.8;"/>
     </g>
     <g id="line2d_8">
      <g>
       <use style="stroke:#000000;stroke-width:0.8;" x="214.034536" xlink:href="#m113a3f97f5" y="230.4"/>
      </g>
     </g>
     <g id="text_4">
      <!-- 2016-01 -->
      <defs>
       <path d="M 33.015625 40.375 
Q 26.375 40.375 22.484375 35.828125 
Q 18.609375 31.296875 18.609375 23.390625 
Q 18.609375 15.53125 22.484375 10.953125 
Q 26.375 6.390625 33.015625 6.390625 
Q 39.65625 6.390625 43.53125 10.953125 
Q 47.40625 15.53125 47.40625 23.390625 
Q 47.40625 31.296875 43.53125 35.828125 
Q 39.65625 40.375 33.015625 40.375 
z
M 52.59375 71.296875 
L 52.59375 62.3125 
Q 48.875 64.0625 45.09375 64.984375 
Q 41.3125 65.921875 37.59375 65.921875 
Q 27.828125 65.921875 22.671875 59.328125 
Q 17.53125 52.734375 16.796875 39.40625 
Q 19.671875 43.65625 24.015625 45.921875 
Q 28.375 48.1875 33.59375 48.1875 
Q 44.578125 48.1875 50.953125 41.515625 
Q 57.328125 34.859375 57.328125 23.390625 
Q 57.328125 12.15625 50.6875 5.359375 
Q 44.046875 -1.421875 33.015625 -1.421875 
Q 20.359375 -1.421875 13.671875 8.265625 
Q 6.984375 17.96875 6.984375 36.375 
Q 6.984375 53.65625 15.1875 63.9375 
Q 23.390625 74.21875 37.203125 74.21875 
Q 40.921875 74.21875 44.703125 73.484375 
Q 48.484375 72.75 52.59375 71.296875 
z
" id="DejaVuSans-54"/>
      </defs>
      <g transform="translate(176.809715 264.871846)rotate(-30)scale(0.1 -0.1)">
       <use xlink:href="#DejaVuSans-50"/>
       <use x="63.623047" xlink:href="#DejaVuSans-48"/>
       <use x="127.246094" xlink:href="#DejaVuSans-49"/>
       <use x="190.869141" xlink:href="#DejaVuSans-54"/>
       <use x="254.492188" xlink:href="#DejaVuSans-45"/>
       <use x="290.576172" xlink:href="#DejaVuSans-48"/>
       <use x="354.199219" xlink:href="#DejaVuSans-49"/>
      </g>
     </g>
    </g>
    <g id="xtick_5">
     <g id="line2d_9">
      <path clip-path="url(#pc86364cfdb)" d="M 255.281135 230.4 
L 255.281135 34.56 
" style="fill:none;stroke:#b0b0b0;stroke-linecap:square;stroke-width:0.8;"/>
     </g>
     <g id="line2d_10">
      <g>
       <use style="stroke:#000000;stroke-width:0.8;" x="255.281135" xlink:href="#m113a3f97f5" y="230.4"/>
      </g>
     </g>
     <g id="text_5">
      <!-- 2016-07 -->
      <g transform="translate(218.056314 264.871846)rotate(-30)scale(0.1 -0.1)">
       <use xlink:href="#DejaVuSans-50"/>
       <use x="63.623047" xlink:href="#DejaVuSans-48"/>
       <use x="127.246094" xlink:href="#DejaVuSans-49"/>
       <use x="190.869141" xlink:href="#DejaVuSans-54"/>
       <use x="254.492188" xlink:href="#DejaVuSans-45"/>
       <use x="290.576172" xlink:href="#DejaVuSans-48"/>
       <use x="354.199219" xlink:href="#DejaVuSans-55"/>
      </g>
     </g>
    </g>
    <g id="xtick_6">
     <g id="line2d_11">
      <path clip-path="url(#pc86364cfdb)" d="M 296.980992 230.4 
L 296.980992 34.56 
" style="fill:none;stroke:#b0b0b0;stroke-linecap:square;stroke-width:0.8;"/>
     </g>
     <g id="line2d_12">
      <g>
       <use style="stroke:#000000;stroke-width:0.8;" x="296.980992" xlink:href="#m113a3f97f5" y="230.4"/>
      </g>
     </g>
     <g id="text_6">
      <!-- 2017-01 -->
      <g transform="translate(259.756172 264.871846)rotate(-30)scale(0.1 -0.1)">
       <use xlink:href="#DejaVuSans-50"/>
       <use x="63.623047" xlink:href="#DejaVuSans-48"/>
       <use x="127.246094" xlink:href="#DejaVuSans-49"/>
       <use x="190.869141" xlink:href="#DejaVuSans-55"/>
       <use x="254.492188" xlink:href="#DejaVuSans-45"/>
       <use x="290.576172" xlink:href="#DejaVuSans-48"/>
       <use x="354.199219" xlink:href="#DejaVuSans-49"/>
      </g>
     </g>
    </g>
    <g id="xtick_7">
     <g id="line2d_13">
      <path clip-path="url(#pc86364cfdb)" d="M 338.000961 230.4 
L 338.000961 34.56 
" style="fill:none;stroke:#b0b0b0;stroke-linecap:square;stroke-width:0.8;"/>
     </g>
     <g id="line2d_14">
      <g>
       <use style="stroke:#000000;stroke-width:0.8;" x="338.000961" xlink:href="#m113a3f97f5" y="230.4"/>
      </g>
     </g>
     <g id="text_7">
      <!-- 2017-07 -->
      <g transform="translate(300.77614 264.871846)rotate(-30)scale(0.1 -0.1)">
       <use xlink:href="#DejaVuSans-50"/>
       <use x="63.623047" xlink:href="#DejaVuSans-48"/>
       <use x="127.246094" xlink:href="#DejaVuSans-49"/>
       <use x="190.869141" xlink:href="#DejaVuSans-55"/>
       <use x="254.492188" xlink:href="#DejaVuSans-45"/>
       <use x="290.576172" xlink:href="#DejaVuSans-48"/>
       <use x="354.199219" xlink:href="#DejaVuSans-55"/>
      </g>
     </g>
    </g>
    <g id="xtick_8">
     <g id="line2d_15">
      <path clip-path="url(#pc86364cfdb)" d="M 379.700819 230.4 
L 379.700819 34.56 
" style="fill:none;stroke:#b0b0b0;stroke-linecap:square;stroke-width:0.8;"/>
     </g>
     <g id="line2d_16">
      <g>
       <use style="stroke:#000000;stroke-width:0.8;" x="379.700819" xlink:href="#m113a3f97f5" y="230.4"/>
      </g>
     </g>
     <g id="text_8">
      <!-- 2018-01 -->
      <defs>
       <path d="M 31.78125 34.625 
Q 24.75 34.625 20.71875 30.859375 
Q 16.703125 27.09375 16.703125 20.515625 
Q 16.703125 13.921875 20.71875 10.15625 
Q 24.75 6.390625 31.78125 6.390625 
Q 38.8125 6.390625 42.859375 10.171875 
Q 46.921875 13.96875 46.921875 20.515625 
Q 46.921875 27.09375 42.890625 30.859375 
Q 38.875 34.625 31.78125 34.625 
z
M 21.921875 38.8125 
Q 15.578125 40.375 12.03125 44.71875 
Q 8.5 49.078125 8.5 55.328125 
Q 8.5 64.0625 14.71875 69.140625 
Q 20.953125 74.21875 31.78125 74.21875 
Q 42.671875 74.21875 48.875 69.140625 
Q 55.078125 64.0625 55.078125 55.328125 
Q 55.078125 49.078125 51.53125 44.71875 
Q 48 40.375 41.703125 38.8125 
Q 48.828125 37.15625 52.796875 32.3125 
Q 56.78125 27.484375 56.78125 20.515625 
Q 56.78125 9.90625 50.3125 4.234375 
Q 43.84375 -1.421875 31.78125 -1.421875 
Q 19.734375 -1.421875 13.25 4.234375 
Q 6.78125 9.90625 6.78125 20.515625 
Q 6.78125 27.484375 10.78125 32.3125 
Q 14.796875 37.15625 21.921875 38.8125 
z
M 18.3125 54.390625 
Q 18.3125 48.734375 21.84375 45.5625 
Q 25.390625 42.390625 31.78125 42.390625 
Q 38.140625 42.390625 41.71875 45.5625 
Q 45.3125 48.734375 45.3125 54.390625 
Q 45.3125 60.0625 41.71875 63.234375 
Q 38.140625 66.40625 31.78125 66.40625 
Q 25.390625 66.40625 21.84375 63.234375 
Q 18.3125 60.0625 18.3125 54.390625 
z
" id="DejaVuSans-56"/>
      </defs>
      <g transform="translate(342.475998 264.871846)rotate(-30)scale(0.1 -0.1)">
       <use xlink:href="#DejaVuSans-50"/>
       <use x="63.623047" xlink:href="#DejaVuSans-48"/>
       <use x="127.246094" xlink:href="#DejaVuSans-49"/>
       <use x="190.869141" xlink:href="#DejaVuSans-56"/>
       <use x="254.492188" xlink:href="#DejaVuSans-45"/>
       <use x="290.576172" xlink:href="#DejaVuSans-48"/>
       <use x="354.199219" xlink:href="#DejaVuSans-49"/>
      </g>
     </g>
    </g>
    <g id="text_9">
     <!-- Date -->
     <defs>
      <path d="M 19.671875 64.796875 
L 19.671875 8.109375 
L 31.59375 8.109375 
Q 46.6875 8.109375 53.6875 14.9375 
Q 60.6875 21.78125 60.6875 36.53125 
Q 60.6875 51.171875 53.6875 57.984375 
Q 46.6875 64.796875 31.59375 64.796875 
z
M 9.8125 72.90625 
L 30.078125 72.90625 
Q 51.265625 72.90625 61.171875 64.09375 
Q 71.09375 55.28125 71.09375 36.53125 
Q 71.09375 17.671875 61.125 8.828125 
Q 51.171875 0 30.078125 0 
L 9.8125 0 
z
" id="DejaVuSans-68"/>
      <path d="M 34.28125 27.484375 
Q 23.390625 27.484375 19.1875 25 
Q 14.984375 22.515625 14.984375 16.5 
Q 14.984375 11.71875 18.140625 8.90625 
Q 21.296875 6.109375 26.703125 6.109375 
Q 34.1875 6.109375 38.703125 11.40625 
Q 43.21875 16.703125 43.21875 25.484375 
L 43.21875 27.484375 
z
M 52.203125 31.203125 
L 52.203125 0 
L 43.21875 0 
L 43.21875 8.296875 
Q 40.140625 3.328125 35.546875 0.953125 
Q 30.953125 -1.421875 24.3125 -1.421875 
Q 15.921875 -1.421875 10.953125 3.296875 
Q 6 8.015625 6 15.921875 
Q 6 25.140625 12.171875 29.828125 
Q 18.359375 34.515625 30.609375 34.515625 
L 43.21875 34.515625 
L 43.21875 35.40625 
Q 43.21875 41.609375 39.140625 45 
Q 35.0625 48.390625 27.6875 48.390625 
Q 23 48.390625 18.546875 47.265625 
Q 14.109375 46.140625 10.015625 43.890625 
L 10.015625 52.203125 
Q 14.9375 54.109375 19.578125 55.046875 
Q 24.21875 56 28.609375 56 
Q 40.484375 56 46.34375 49.84375 
Q 52.203125 43.703125 52.203125 31.203125 
z
" id="DejaVuSans-97"/>
      <path d="M 18.3125 70.21875 
L 18.3125 54.6875 
L 36.8125 54.6875 
L 36.8125 47.703125 
L 18.3125 47.703125 
L 18.3125 18.015625 
Q 18.3125 11.328125 20.140625 9.421875 
Q 21.96875 7.515625 27.59375 7.515625 
L 36.8125 7.515625 
L 36.8125 0 
L 27.59375 0 
Q 17.1875 0 13.234375 3.875 
Q 9.28125 7.765625 9.28125 18.015625 
L 9.28125 47.703125 
L 2.6875 47.703125 
L 2.6875 54.6875 
L 9.28125 54.6875 
L 9.28125 70.21875 
z
" id="DejaVuSans-116"/>
      <path d="M 56.203125 29.59375 
L 56.203125 25.203125 
L 14.890625 25.203125 
Q 15.484375 15.921875 20.484375 11.0625 
Q 25.484375 6.203125 34.421875 6.203125 
Q 39.59375 6.203125 44.453125 7.46875 
Q 49.3125 8.734375 54.109375 11.28125 
L 54.109375 2.78125 
Q 49.265625 0.734375 44.1875 -0.34375 
Q 39.109375 -1.421875 33.890625 -1.421875 
Q 20.796875 -1.421875 13.15625 6.1875 
Q 5.515625 13.8125 5.515625 26.8125 
Q 5.515625 40.234375 12.765625 48.109375 
Q 20.015625 56 32.328125 56 
Q 43.359375 56 49.78125 48.890625 
Q 56.203125 41.796875 56.203125 29.59375 
z
M 47.21875 32.234375 
Q 47.125 39.59375 43.09375 43.984375 
Q 39.0625 48.390625 32.421875 48.390625 
Q 24.90625 48.390625 20.390625 44.140625 
Q 15.875 39.890625 15.1875 32.171875 
z
" id="DejaVuSans-101"/>
     </defs>
     <g transform="translate(209.449219 278.271346)scale(0.1 -0.1)">
      <use xlink:href="#DejaVuSans-68"/>
      <use x="77.001953" xlink:href="#DejaVuSans-97"/>
      <use x="138.28125" xlink:href="#DejaVuSans-116"/>
      <use x="177.490234" xlink:href="#DejaVuSans-101"/>
     </g>
    </g>
   </g>
   <g id="matplotlib.axis_2">
    <g id="ytick_1">
     <g id="line2d_17">
      <path clip-path="url(#pc86364cfdb)" d="M 54 218.715705 
L 388.8 218.715705 
" style="fill:none;stroke:#b0b0b0;stroke-linecap:square;stroke-width:0.8;"/>
     </g>
     <g id="line2d_18">
      <defs>
       <path d="M 0 0 
L -3.5 0 
" id="m5d65514fc7" style="stroke:#000000;stroke-width:0.8;"/>
      </defs>
      <g>
       <use style="stroke:#000000;stroke-width:0.8;" x="54" xlink:href="#m5d65514fc7" y="218.715705"/>
      </g>
     </g>
     <g id="text_10">
      <!-- 500 -->
      <g transform="translate(27.9125 222.514924)scale(0.1 -0.1)">
       <use xlink:href="#DejaVuSans-53"/>
       <use x="63.623047" xlink:href="#DejaVuSans-48"/>
       <use x="127.246094" xlink:href="#DejaVuSans-48"/>
      </g>
     </g>
    </g>
    <g id="ytick_2">
     <g id="line2d_19">
      <path clip-path="url(#pc86364cfdb)" d="M 54 187.093416 
L 388.8 187.093416 
" style="fill:none;stroke:#b0b0b0;stroke-linecap:square;stroke-width:0.8;"/>
     </g>
     <g id="line2d_20">
      <g>
       <use style="stroke:#000000;stroke-width:0.8;" x="54" xlink:href="#m5d65514fc7" y="187.093416"/>
      </g>
     </g>
     <g id="text_11">
      <!-- 600 -->
      <g transform="translate(27.9125 190.892635)scale(0.1 -0.1)">
       <use xlink:href="#DejaVuSans-54"/>
       <use x="63.623047" xlink:href="#DejaVuSans-48"/>
       <use x="127.246094" xlink:href="#DejaVuSans-48"/>
      </g>
     </g>
    </g>
    <g id="ytick_3">
     <g id="line2d_21">
      <path clip-path="url(#pc86364cfdb)" d="M 54 155.471127 
L 388.8 155.471127 
" style="fill:none;stroke:#b0b0b0;stroke-linecap:square;stroke-width:0.8;"/>
     </g>
     <g id="line2d_22">
      <g>
       <use style="stroke:#000000;stroke-width:0.8;" x="54" xlink:href="#m5d65514fc7" y="155.471127"/>
      </g>
     </g>
     <g id="text_12">
      <!-- 700 -->
      <g transform="translate(27.9125 159.270346)scale(0.1 -0.1)">
       <use xlink:href="#DejaVuSans-55"/>
       <use x="63.623047" xlink:href="#DejaVuSans-48"/>
       <use x="127.246094" xlink:href="#DejaVuSans-48"/>
      </g>
     </g>
    </g>
    <g id="ytick_4">
     <g id="line2d_23">
      <path clip-path="url(#pc86364cfdb)" d="M 54 123.848839 
L 388.8 123.848839 
" style="fill:none;stroke:#b0b0b0;stroke-linecap:square;stroke-width:0.8;"/>
     </g>
     <g id="line2d_24">
      <g>
       <use style="stroke:#000000;stroke-width:0.8;" x="54" xlink:href="#m5d65514fc7" y="123.848839"/>
      </g>
     </g>
     <g id="text_13">
      <!-- 800 -->
      <g transform="translate(27.9125 127.648057)scale(0.1 -0.1)">
       <use xlink:href="#DejaVuSans-56"/>
       <use x="63.623047" xlink:href="#DejaVuSans-48"/>
       <use x="127.246094" xlink:href="#DejaVuSans-48"/>
      </g>
     </g>
    </g>
    <g id="ytick_5">
     <g id="line2d_25">
      <path clip-path="url(#pc86364cfdb)" d="M 54 92.22655 
L 388.8 92.22655 
" style="fill:none;stroke:#b0b0b0;stroke-linecap:square;stroke-width:0.8;"/>
     </g>
     <g id="line2d_26">
      <g>
       <use style="stroke:#000000;stroke-width:0.8;" x="54" xlink:href="#m5d65514fc7" y="92.22655"/>
      </g>
     </g>
     <g id="text_14">
      <!-- 900 -->
      <defs>
       <path d="M 10.984375 1.515625 
L 10.984375 10.5 
Q 14.703125 8.734375 18.5 7.8125 
Q 22.3125 6.890625 25.984375 6.890625 
Q 35.75 6.890625 40.890625 13.453125 
Q 46.046875 20.015625 46.78125 33.40625 
Q 43.953125 29.203125 39.59375 26.953125 
Q 35.25 24.703125 29.984375 24.703125 
Q 19.046875 24.703125 12.671875 31.3125 
Q 6.296875 37.9375 6.296875 49.421875 
Q 6.296875 60.640625 12.9375 67.421875 
Q 19.578125 74.21875 30.609375 74.21875 
Q 43.265625 74.21875 49.921875 64.515625 
Q 56.59375 54.828125 56.59375 36.375 
Q 56.59375 19.140625 48.40625 8.859375 
Q 40.234375 -1.421875 26.421875 -1.421875 
Q 22.703125 -1.421875 18.890625 -0.6875 
Q 15.09375 0.046875 10.984375 1.515625 
z
M 30.609375 32.421875 
Q 37.25 32.421875 41.125 36.953125 
Q 45.015625 41.5 45.015625 49.421875 
Q 45.015625 57.28125 41.125 61.84375 
Q 37.25 66.40625 30.609375 66.40625 
Q 23.96875 66.40625 20.09375 61.84375 
Q 16.21875 57.28125 16.21875 49.421875 
Q 16.21875 41.5 20.09375 36.953125 
Q 23.96875 32.421875 30.609375 32.421875 
z
" id="DejaVuSans-57"/>
      </defs>
      <g transform="translate(27.9125 96.025769)scale(0.1 -0.1)">
       <use xlink:href="#DejaVuSans-57"/>
       <use x="63.623047" xlink:href="#DejaVuSans-48"/>
       <use x="127.246094" xlink:href="#DejaVuSans-48"/>
      </g>
     </g>
    </g>
    <g id="ytick_6">
     <g id="line2d_27">
      <path clip-path="url(#pc86364cfdb)" d="M 54 60.604261 
L 388.8 60.604261 
" style="fill:none;stroke:#b0b0b0;stroke-linecap:square;stroke-width:0.8;"/>
     </g>
     <g id="line2d_28">
      <g>
       <use style="stroke:#000000;stroke-width:0.8;" x="54" xlink:href="#m5d65514fc7" y="60.604261"/>
      </g>
     </g>
     <g id="text_15">
      <!-- 1000 -->
      <g transform="translate(21.55 64.40348)scale(0.1 -0.1)">
       <use xlink:href="#DejaVuSans-49"/>
       <use x="63.623047" xlink:href="#DejaVuSans-48"/>
       <use x="127.246094" xlink:href="#DejaVuSans-48"/>
       <use x="190.869141" xlink:href="#DejaVuSans-48"/>
      </g>
     </g>
    </g>
    <g id="text_16">
     <!-- Closing Price -->
     <defs>
      <path d="M 64.40625 67.28125 
L 64.40625 56.890625 
Q 59.421875 61.53125 53.78125 63.8125 
Q 48.140625 66.109375 41.796875 66.109375 
Q 29.296875 66.109375 22.65625 58.46875 
Q 16.015625 50.828125 16.015625 36.375 
Q 16.015625 21.96875 22.65625 14.328125 
Q 29.296875 6.6875 41.796875 6.6875 
Q 48.140625 6.6875 53.78125 8.984375 
Q 59.421875 11.28125 64.40625 15.921875 
L 64.40625 5.609375 
Q 59.234375 2.09375 53.4375 0.328125 
Q 47.65625 -1.421875 41.21875 -1.421875 
Q 24.65625 -1.421875 15.125 8.703125 
Q 5.609375 18.84375 5.609375 36.375 
Q 5.609375 53.953125 15.125 64.078125 
Q 24.65625 74.21875 41.21875 74.21875 
Q 47.75 74.21875 53.53125 72.484375 
Q 59.328125 70.75 64.40625 67.28125 
z
" id="DejaVuSans-67"/>
      <path d="M 9.421875 75.984375 
L 18.40625 75.984375 
L 18.40625 0 
L 9.421875 0 
z
" id="DejaVuSans-108"/>
      <path d="M 30.609375 48.390625 
Q 23.390625 48.390625 19.1875 42.75 
Q 14.984375 37.109375 14.984375 27.296875 
Q 14.984375 17.484375 19.15625 11.84375 
Q 23.34375 6.203125 30.609375 6.203125 
Q 37.796875 6.203125 41.984375 11.859375 
Q 46.1875 17.53125 46.1875 27.296875 
Q 46.1875 37.015625 41.984375 42.703125 
Q 37.796875 48.390625 30.609375 48.390625 
z
M 30.609375 56 
Q 42.328125 56 49.015625 48.375 
Q 55.71875 40.765625 55.71875 27.296875 
Q 55.71875 13.875 49.015625 6.21875 
Q 42.328125 -1.421875 30.609375 -1.421875 
Q 18.84375 -1.421875 12.171875 6.21875 
Q 5.515625 13.875 5.515625 27.296875 
Q 5.515625 40.765625 12.171875 48.375 
Q 18.84375 56 30.609375 56 
z
" id="DejaVuSans-111"/>
      <path d="M 44.28125 53.078125 
L 44.28125 44.578125 
Q 40.484375 46.53125 36.375 47.5 
Q 32.28125 48.484375 27.875 48.484375 
Q 21.1875 48.484375 17.84375 46.4375 
Q 14.5 44.390625 14.5 40.28125 
Q 14.5 37.15625 16.890625 35.375 
Q 19.28125 33.59375 26.515625 31.984375 
L 29.59375 31.296875 
Q 39.15625 29.25 43.1875 25.515625 
Q 47.21875 21.78125 47.21875 15.09375 
Q 47.21875 7.46875 41.1875 3.015625 
Q 35.15625 -1.421875 24.609375 -1.421875 
Q 20.21875 -1.421875 15.453125 -0.5625 
Q 10.6875 0.296875 5.421875 2 
L 5.421875 11.28125 
Q 10.40625 8.6875 15.234375 7.390625 
Q 20.0625 6.109375 24.8125 6.109375 
Q 31.15625 6.109375 34.5625 8.28125 
Q 37.984375 10.453125 37.984375 14.40625 
Q 37.984375 18.0625 35.515625 20.015625 
Q 33.0625 21.96875 24.703125 23.78125 
L 21.578125 24.515625 
Q 13.234375 26.265625 9.515625 29.90625 
Q 5.8125 33.546875 5.8125 39.890625 
Q 5.8125 47.609375 11.28125 51.796875 
Q 16.75 56 26.8125 56 
Q 31.78125 56 36.171875 55.265625 
Q 40.578125 54.546875 44.28125 53.078125 
z
" id="DejaVuSans-115"/>
      <path d="M 9.421875 54.6875 
L 18.40625 54.6875 
L 18.40625 0 
L 9.421875 0 
z
M 9.421875 75.984375 
L 18.40625 75.984375 
L 18.40625 64.59375 
L 9.421875 64.59375 
z
" id="DejaVuSans-105"/>
      <path d="M 54.890625 33.015625 
L 54.890625 0 
L 45.90625 0 
L 45.90625 32.71875 
Q 45.90625 40.484375 42.875 44.328125 
Q 39.84375 48.1875 33.796875 48.1875 
Q 26.515625 48.1875 22.3125 43.546875 
Q 18.109375 38.921875 18.109375 30.90625 
L 18.109375 0 
L 9.078125 0 
L 9.078125 54.6875 
L 18.109375 54.6875 
L 18.109375 46.1875 
Q 21.34375 51.125 25.703125 53.5625 
Q 30.078125 56 35.796875 56 
Q 45.21875 56 50.046875 50.171875 
Q 54.890625 44.34375 54.890625 33.015625 
z
" id="DejaVuSans-110"/>
      <path d="M 45.40625 27.984375 
Q 45.40625 37.75 41.375 43.109375 
Q 37.359375 48.484375 30.078125 48.484375 
Q 22.859375 48.484375 18.828125 43.109375 
Q 14.796875 37.75 14.796875 27.984375 
Q 14.796875 18.265625 18.828125 12.890625 
Q 22.859375 7.515625 30.078125 7.515625 
Q 37.359375 7.515625 41.375 12.890625 
Q 45.40625 18.265625 45.40625 27.984375 
z
M 54.390625 6.78125 
Q 54.390625 -7.171875 48.1875 -13.984375 
Q 42 -20.796875 29.203125 -20.796875 
Q 24.46875 -20.796875 20.265625 -20.09375 
Q 16.0625 -19.390625 12.109375 -17.921875 
L 12.109375 -9.1875 
Q 16.0625 -11.328125 19.921875 -12.34375 
Q 23.78125 -13.375 27.78125 -13.375 
Q 36.625 -13.375 41.015625 -8.765625 
Q 45.40625 -4.15625 45.40625 5.171875 
L 45.40625 9.625 
Q 42.625 4.78125 38.28125 2.390625 
Q 33.9375 0 27.875 0 
Q 17.828125 0 11.671875 7.65625 
Q 5.515625 15.328125 5.515625 27.984375 
Q 5.515625 40.671875 11.671875 48.328125 
Q 17.828125 56 27.875 56 
Q 33.9375 56 38.28125 53.609375 
Q 42.625 51.21875 45.40625 46.390625 
L 45.40625 54.6875 
L 54.390625 54.6875 
z
" id="DejaVuSans-103"/>
      <path id="DejaVuSans-32"/>
      <path d="M 19.671875 64.796875 
L 19.671875 37.40625 
L 32.078125 37.40625 
Q 38.96875 37.40625 42.71875 40.96875 
Q 46.484375 44.53125 46.484375 51.125 
Q 46.484375 57.671875 42.71875 61.234375 
Q 38.96875 64.796875 32.078125 64.796875 
z
M 9.8125 72.90625 
L 32.078125 72.90625 
Q 44.34375 72.90625 50.609375 67.359375 
Q 56.890625 61.8125 56.890625 51.125 
Q 56.890625 40.328125 50.609375 34.8125 
Q 44.34375 29.296875 32.078125 29.296875 
L 19.671875 29.296875 
L 19.671875 0 
L 9.8125 0 
z
" id="DejaVuSans-80"/>
      <path d="M 41.109375 46.296875 
Q 39.59375 47.171875 37.8125 47.578125 
Q 36.03125 48 33.890625 48 
Q 26.265625 48 22.1875 43.046875 
Q 18.109375 38.09375 18.109375 28.8125 
L 18.109375 0 
L 9.078125 0 
L 9.078125 54.6875 
L 18.109375 54.6875 
L 18.109375 46.1875 
Q 20.953125 51.171875 25.484375 53.578125 
Q 30.03125 56 36.53125 56 
Q 37.453125 56 38.578125 55.875 
Q 39.703125 55.765625 41.0625 55.515625 
z
" id="DejaVuSans-114"/>
      <path d="M 48.78125 52.59375 
L 48.78125 44.1875 
Q 44.96875 46.296875 41.140625 47.34375 
Q 37.3125 48.390625 33.40625 48.390625 
Q 24.65625 48.390625 19.8125 42.84375 
Q 14.984375 37.3125 14.984375 27.296875 
Q 14.984375 17.28125 19.8125 11.734375 
Q 24.65625 6.203125 33.40625 6.203125 
Q 37.3125 6.203125 41.140625 7.25 
Q 44.96875 8.296875 48.78125 10.40625 
L 48.78125 2.09375 
Q 45.015625 0.34375 40.984375 -0.53125 
Q 36.96875 -1.421875 32.421875 -1.421875 
Q 20.0625 -1.421875 12.78125 6.34375 
Q 5.515625 14.109375 5.515625 27.296875 
Q 5.515625 40.671875 12.859375 48.328125 
Q 20.21875 56 33.015625 56 
Q 37.15625 56 41.109375 55.140625 
Q 45.0625 54.296875 48.78125 52.59375 
z
" id="DejaVuSans-99"/>
     </defs>
     <g transform="translate(15.470312 164.63)rotate(-90)scale(0.1 -0.1)">
      <use xlink:href="#DejaVuSans-67"/>
      <use x="69.824219" xlink:href="#DejaVuSans-108"/>
      <use x="97.607422" xlink:href="#DejaVuSans-111"/>
      <use x="158.789062" xlink:href="#DejaVuSans-115"/>
      <use x="210.888672" xlink:href="#DejaVuSans-105"/>
      <use x="238.671875" xlink:href="#DejaVuSans-110"/>
      <use x="302.050781" xlink:href="#DejaVuSans-103"/>
      <use x="365.527344" xlink:href="#DejaVuSans-32"/>
      <use x="397.314453" xlink:href="#DejaVuSans-80"/>
      <use x="457.601562" xlink:href="#DejaVuSans-114"/>
      <use x="498.714844" xlink:href="#DejaVuSans-105"/>
      <use x="526.498047" xlink:href="#DejaVuSans-99"/>
      <use x="581.478516" xlink:href="#DejaVuSans-101"/>
     </g>
    </g>
   </g>
   <g id="line2d_29">
    <path clip-path="url(#pc86364cfdb)" d="M 69.218182 198.019834 
L 69.444811 197.155787 
L 69.671441 205.544263 
L 70.35133 207.117914 
L 70.804589 198.921765 
L 71.031219 206.234894 
L 71.257849 209.498851 
L 71.937738 208.893348 
L 72.164367 207.657169 
L 72.390997 201.318513 
L 72.617627 207.764369 
L 73.524145 210.123297 
L 73.750775 208.17119 
L 73.977405 210.653065 
L 74.204034 211.214392 
L 74.430664 214.046326 
L 75.110553 213.740412 
L 75.337183 210.413368 
L 75.563812 210.741386 
L 75.790442 209.262317 
L 76.017072 210.34089 
L 76.696961 210.378678 
L 76.92359 214.374281 
L 77.15022 216.007825 
L 77.37685 215.679839 
L 77.603479 213.24214 
L 78.509998 208.713607 
L 78.963257 212.847936 
L 79.189887 212.642961 
L 79.869776 210.047561 
L 80.096406 209.760589 
L 80.549665 204.938822 
L 80.776295 202.529457 
L 81.682813 198.350983 
L 81.909443 199.697586 
L 82.136073 200.20212 
L 82.362702 200.262044 
L 83.042591 202.14161 
L 83.269221 204.976611 
L 83.495851 205.064932 
L 83.72248 202.151033 
L 83.94911 201.384699 
L 84.628999 199.558796 
L 85.082258 200.593161 
L 85.308888 202.955188 
L 85.535517 202.825884 
L 86.442036 205.585277 
L 86.668666 202.318188 
L 87.121925 201.375275 
L 87.801814 198.66632 
L 88.028444 198.770421 
L 88.255073 194.345925 
L 88.481703 195.181639 
L 88.708333 194.790629 
L 89.388222 195.408687 
L 89.614851 193.078219 
L 89.841481 193.183837 
L 90.068111 192.428602 
L 90.974629 193.210653 
L 91.201259 196.730024 
L 91.427889 195.156404 
L 91.654518 196.726925 
L 91.881148 194.178833 
L 92.561037 192.384458 
L 92.787667 192.412791 
L 93.014296 193.081381 
L 93.240926 195.897536 
L 93.467556 189.164613 
L 94.147445 190.933817 
L 94.374074 189.271876 
L 94.600704 188.880834 
L 94.827334 189.710224 
L 95.053963 191.075674 
L 95.733852 190.577465 
L 95.960482 192.151085 
L 96.187112 191.580303 
L 96.413741 196.569225 
L 96.640371 198.313131 
L 97.32026 196.080407 
L 97.54689 198.6285 
L 97.773519 198.217252 
L 98.000149 199.167786 
L 98.226779 197.461669 
L 98.906668 197.742348 
L 99.133297 199.366469 
L 99.359927 195.566356 
L 99.586557 195.60737 
L 99.813186 195.97637 
L 100.493075 193.239082 
L 100.719705 191.756882 
L 100.946335 192.504274 
L 101.399594 193.112909 
L 102.079483 193.857139 
L 102.306113 194.595109 
L 102.532742 196.758421 
L 102.759372 197.326073 
L 102.986001 196.569225 
L 103.89252 194.762201 
L 104.11915 194.569842 
L 104.572409 192.00284 
L 105.252298 190.854982 
L 105.478928 193.601694 
L 105.705557 192.942623 
L 105.932187 193.494495 
L 106.158817 195.301487 
L 106.838706 196.096187 
L 107.291965 192.415953 
L 107.518595 190.99684 
L 107.745224 188.849307 
L 108.425113 191.596051 
L 108.651743 193.563842 
L 108.878373 191.40053 
L 109.105002 195.478098 
L 109.331632 194.834774 
L 110.011521 195.068146 
L 110.238151 194.752777 
L 110.46478 197.619338 
L 110.69141 197.048555 
L 110.91804 195.408687 
L 111.597929 194.755939 
L 111.824558 199.047938 
L 112.051188 196.285383 
L 112.504447 205.118532 
L 113.184336 208.675755 
L 113.410966 207.184131 
L 114.090855 215.626239 
L 114.770744 212.576744 
L 115.224003 208.833455 
L 115.450633 205.279394 
L 115.677263 206.603862 
L 116.357152 206.291656 
L 116.583781 203.727815 
L 116.810411 203.592219 
L 117.037041 203.283174 
L 117.26367 200.517489 
L 118.170189 202.084848 
L 118.396819 204.667598 
L 118.623448 205.891191 
L 118.850078 206.215983 
L 119.756596 203.289499 
L 120.209856 204.837852 
L 120.436485 205.146929 
L 121.343004 208.10181 
L 121.569634 207.483721 
L 121.796263 208.164897 
L 122.022893 207.32289 
L 122.702782 206.764693 
L 122.929412 206.193911 
L 123.156041 206.417829 
L 123.609301 205.957376 
L 124.28919 208.489689 
L 124.515819 208.505469 
L 124.742449 209.271803 
L 124.969079 207.382814 
L 125.195708 211.182865 
L 125.875597 210.640448 
L 126.102227 208.625349 
L 126.328857 210.930614 
L 126.555486 210.211554 
L 126.782116 213.264212 
L 127.462005 214.79685 
L 127.688635 220.602575 
L 128.141894 215.648311 
L 128.368524 213.992695 
L 129.048413 211.305844 
L 129.275042 209.502014 
L 129.501672 210.075958 
L 129.954931 208.417179 
L 130.63482 209.583979 
L 130.86145 209.555613 
L 131.08808 210.823351 
L 131.541339 211.324786 
L 132.221228 214.774777 
L 132.447858 218.530683 
L 132.674487 218.801876 
L 132.901117 218.303603 
L 133.127747 220.356586 
L 133.807636 221.498182 
L 134.714154 216.60068 
L 135.620673 216.972811 
L 136.300562 206.550263 
L 136.980451 208.045048 
L 137.43371 215.995208 
L 137.66034 215.78707 
L 137.886969 208.262641 
L 138.566858 210.16741 
L 138.793488 209.927744 
L 139.020118 211.97124 
L 139.473377 209.37271 
L 140.153266 210.372385 
L 140.379896 207.499469 
L 140.606525 207.805383 
L 141.059785 203.693126 
L 141.966303 205.638877 
L 142.192933 206.629097 
L 142.419563 205.629453 
L 142.646192 206.8656 
L 143.326081 209.085738 
L 143.552711 207.767531 
L 144.2326 200.73192 
L 145.139119 195.925869 
L 145.365748 196.01106 
L 145.592378 195.392939 
L 145.819008 197.803854 
L 146.498897 197.436466 
L 146.725526 201.800974 
L 146.952156 203.008819 
L 147.178786 201.643306 
L 147.405415 204.226088 
L 148.085304 201.958643 
L 148.311934 203.116019 
L 148.538564 200.385023 
L 148.765193 200.861255 
L 148.991823 200.11383 
L 149.671712 200.602648 
L 149.898342 197.013866 
L 150.124971 200.610553 
L 150.351601 201.750568 
L 150.578231 203.904426 
L 151.25812 202.740757 
L 151.711379 205.727198 
L 151.938009 207.944142 
L 153.071157 207.474266 
L 153.297787 206.026756 
L 153.751046 206.531321 
L 154.430935 206.796252 
L 154.657564 209.565068 
L 155.110824 208.489689 
L 155.337453 211.564451 
L 156.017342 207.991448 
L 156.243972 208.436121 
L 156.697231 204.326994 
L 156.923861 198.631662 
L 158.057009 203.195486 
L 158.283639 206.907942 
L 158.510269 206.730858 
L 159.190158 205.820136 
L 159.643417 211.056787 
L 160.096676 206.629666 
L 160.776565 207.426548 
L 161.003195 209.532592 
L 161.229825 209.349183 
L 161.456454 206.572746 
L 161.683084 208.01156 
L 162.362973 208.501706 
L 162.589603 206.901618 
L 162.816232 206.297632 
L 163.042862 205.27307 
L 163.269492 206.032005 
L 164.17601 208.495381 
L 164.40264 206.133196 
L 164.62927 206.136359 
L 164.855899 208.561788 
L 165.535788 207.967289 
L 165.762418 206.326092 
L 165.989048 205.96876 
L 166.442307 208.175996 
L 167.122196 210.231445 
L 167.348826 210.275716 
L 167.575455 207.113487 
L 168.708604 210.114442 
L 169.161863 209.463023 
L 169.388493 207.100838 
L 169.615122 207.113487 
L 170.295011 206.639153 
L 170.521641 205.915002 
L 171.20153 208.694602 
L 171.881419 211.910588 
L 172.108048 212.229974 
L 172.561308 211.316089 
L 173.467826 211.48685 
L 173.694456 210.803808 
L 173.921086 213.393674 
L 174.147715 212.176216 
L 174.374345 209.187909 
L 175.054234 203.99553 
L 175.280864 199.394487 
L 175.507493 199.672763 
L 175.734123 193.465307 
L 175.960753 164.031281 
L 176.640642 167.16505 
L 176.867271 167.39273 
L 177.093901 167.455975 
L 177.54716 179.643205 
L 178.453679 178.239175 
L 178.680309 176.996419 
L 178.906938 176.787712 
L 179.133568 178.994948 
L 179.813457 177.2241 
L 180.040087 177.843897 
L 180.266716 173.249178 
L 180.493346 173.597023 
L 180.719976 175.930748 
L 181.399865 176.427218 
L 181.626494 167.873389 
L 181.853124 168.259181 
L 182.079754 169.242634 
L 182.306383 169.030765 
L 182.986272 167.844929 
L 183.212902 169.343825 
L 183.439532 167.835442 
L 183.666161 172.284698 
L 183.892791 183.146955 
L 184.79931 192.766455 
L 185.025939 178.043117 
L 185.252569 175.200273 
L 185.479199 177.486565 
L 186.159088 181.322348 
L 186.385717 187.792269 
L 186.612347 182.55878 
L 187.065606 186.87206 
L 187.972125 182.457589 
L 188.198754 183.071061 
L 188.652014 178.944352 
L 189.331903 179.744396 
L 189.558532 175.981344 
L 189.785162 175.715717 
L 190.011792 173.527454 
L 190.238421 177.843897 
L 190.91831 175.886477 
L 191.14494 179.918319 
L 191.37157 180.022672 
L 191.598199 178.934866 
L 191.824829 183.308228 
L 192.504718 188.709315 
L 192.731348 188.684017 
L 192.957977 184.430819 
L 193.184607 183.52326 
L 193.411237 178.583858 
L 194.317755 172.724248 
L 194.771015 174.710128 
L 194.997644 173.302936 
L 195.677533 172.335294 
L 195.904163 170.554959 
L 196.130793 170.915453 
L 196.357422 167.569815 
L 196.584052 167.424353 
L 197.263941 166.191083 
L 197.490571 171.193729 
L 197.7172 173.619159 
L 197.94383 170.716233 
L 198.17046 154.838682 
L 198.850349 151.429799 
L 199.076978 152.786395 
L 199.530238 150.120636 
L 199.756867 152.052758 
L 200.436756 148.795662 
L 200.663386 148.463628 
L 201.116645 145.589162 
L 201.343275 144.795443 
L 202.023164 147.60034 
L 202.249794 146.515695 
L 202.476423 144.276837 
L 202.703053 145.595487 
L 202.929683 150.095338 
L 203.609572 146.313313 
L 203.836201 147.470688 
L 204.062831 142.822212 
L 204.289461 143.325006 
L 204.51609 137.572912 
L 205.195979 137.76897 
L 205.422609 140.203886 
L 205.649238 140.244995 
L 206.102498 139.577765 
L 206.782387 142.000032 
L 207.009016 134.271545 
L 207.235646 135.745144 
L 207.462276 138.856777 
L 207.688905 134.344276 
L 208.595424 135.748306 
L 208.822054 139.150864 
L 209.048683 139.830743 
L 209.275313 143.179544 
L 209.955202 140.36516 
L 210.181832 141.747054 
L 210.408461 137.10174 
L 210.861721 143.040406 
L 211.768239 139.659983 
L 211.994869 139.561954 
L 212.221499 140.16594 
L 213.128017 135.704035 
L 213.354647 131.248454 
L 213.581277 133.019302 
L 213.807906 136.851924 
L 214.714425 142.240362 
L 215.167684 141.677485 
L 215.620944 150.895382 
L 216.300833 150.402074 
L 216.527462 147.227197 
L 216.754092 155.294043 
L 216.980722 150.816326 
L 217.207351 157.226164 
L 218.11387 154.905088 
L 218.3405 155.961273 
L 218.567129 153.387219 
L 218.793759 147.486499 
L 219.473648 151.780806 
L 219.700278 151.347581 
L 219.926907 155.47429 
L 220.153537 145.680867 
L 220.380167 141.889354 
L 221.060056 139.027537 
L 221.286685 135.027318 
L 221.513315 146.948921 
L 221.966574 160.666669 
L 222.646463 160.929134 
L 222.873093 162.393246 
L 223.099722 160.492747 
L 223.552982 161.03665 
L 224.4595 158.317133 
L 224.68613 152.814855 
L 224.91276 156.309118 
L 225.139389 155.183365 
L 225.819278 153.428328 
L 226.045908 156.783452 
L 226.272538 155.610265 
L 226.499167 153.652846 
L 226.725797 153.867877 
L 227.405686 156.176304 
L 227.632316 149.522975 
L 227.858945 149.510326 
L 228.085575 151.543639 
L 228.312205 152.02746 
L 228.992094 157.001646 
L 229.218723 157.377951 
L 229.898612 146.99003 
L 230.578501 145.829492 
L 230.805131 146.512533 
L 231.031761 144.058643 
L 231.25839 143.524227 
L 231.48502 143.581147 
L 232.164909 142.161306 
L 232.391539 142.585045 
L 232.844798 144.308459 
L 233.751317 144.868174 
L 234.204576 139.492385 
L 234.431206 141.256909 
L 234.657835 139.688443 
L 235.337724 141.149393 
L 235.564354 143.517902 
L 235.790984 141.022904 
L 236.017613 142.733669 
L 236.924132 144.055481 
L 237.377391 139.11608 
L 237.604021 138.64807 
L 237.830651 136.813977 
L 238.510539 134.407521 
L 238.737169 138.417227 
L 238.963799 138.815668 
L 239.190428 136.769706 
L 239.417058 149.535624 
L 240.096947 148.150568 
L 240.323577 152.897073 
L 240.550206 153.624386 
L 240.776836 158.310809 
L 241.683355 156.037166 
L 241.909984 157.88707 
L 242.136614 156.830886 
L 242.363244 155.018929 
L 242.589873 151.954729 
L 243.269762 151.391852 
L 243.496392 148.141081 
L 243.723022 150.636079 
L 244.176281 152.046434 
L 244.85617 150.256612 
L 245.0828 153.501059 
L 245.309429 153.37457 
L 245.536059 155.369936 
L 245.762689 152.391116 
L 246.442578 154.130342 
L 246.669207 149.11821 
L 246.895837 147.480175 
L 247.122467 147.843831 
L 247.349096 145.143288 
L 248.255615 144.175646 
L 248.482245 144.672116 
L 248.708874 145.857952 
L 248.935504 148.406708 
L 249.615393 150.237639 
L 249.842023 150.206016 
L 250.068652 146.528344 
L 250.295282 146.433477 
L 250.521912 149.333241 
L 251.42843 149.693735 
L 251.65506 149.48819 
L 251.88169 152.195058 
L 252.108319 158.089453 
L 252.788208 157.460169 
L 253.241468 156.274334 
L 253.468097 154.879791 
L 253.694727 163.307131 
L 254.374616 165.508042 
L 254.601246 161.782936 
L 254.827875 160.495909 
L 255.281135 155.720943 
L 256.187653 157.213515 
L 256.414283 156.176304 
L 256.640912 156.938402 
L 256.867542 153.690793 
L 257.547431 150.699324 
L 257.774061 148.944287 
L 258.00069 150.101663 
L 258.22732 148.846258 
L 258.45395 149.194103 
L 259.587098 142.445907 
L 259.813728 143.255437 
L 260.040357 141.955761 
L 260.946876 143.321844 
L 261.400135 140.953335 
L 261.626765 133.718155 
L 262.306654 132.424803 
L 262.533284 132.997167 
L 262.759913 132.329936 
L 262.986543 132.826406 
L 263.213173 129.471282 
L 263.893062 129.616744 
L 264.119691 128.826187 
L 264.572951 128.639615 
L 264.79958 129.155059 
L 265.479469 129.401712 
L 265.706099 131.077694 
L 265.932729 130.201756 
L 266.385988 131.621597 
L 267.065877 132.655646 
L 267.292507 132.677782 
L 267.519136 133.449365 
L 267.972396 133.480988 
L 268.652285 132.655646 
L 269.105544 134.268383 
L 269.332174 133.721317 
L 269.558803 132.87384 
L 270.465322 130.147999 
L 270.691952 130.062618 
L 270.918581 131.653219 
L 271.145211 136.60527 
L 271.8251 133.645424 
L 272.05173 136.595783 
L 272.278359 135.710359 
L 272.504989 132.778973 
L 272.731618 133.689695 
L 273.411507 134.695284 
L 273.864767 131.368619 
L 274.091396 127.893329 
L 274.318026 127.991358 
L 274.997915 132.004227 
L 275.224545 129.221465 
L 275.451174 129.679989 
L 275.677804 131.751249 
L 275.904434 131.03026 
L 276.584323 132.525995 
L 276.810952 131.302212 
L 277.264212 131.166236 
L 277.490841 131.729113 
L 278.17073 128.294932 
L 278.39736 129.202492 
L 278.62399 128.231688 
L 278.850619 130.74566 
L 279.077249 130.638144 
L 279.757138 130.185945 
L 279.983768 125.347735 
L 280.210397 123.355531 
L 280.437027 124.806994 
L 280.663657 124.048059 
L 281.343546 119.703157 
L 281.570175 121.423409 
L 281.796805 124.142926 
L 282.023435 125.319275 
L 282.250064 125.312951 
L 282.929953 128.737644 
L 283.156583 129.031732 
L 283.383213 133.746615 
L 283.609842 135.824199 
L 283.836472 135.858984 
L 284.742991 126.849794 
L 284.96962 128.494153 
L 285.19625 135.688224 
L 285.42288 138.388767 
L 286.102769 144.061806 
L 286.329398 136.975251 
L 286.782658 132.946571 
L 287.009287 136.326994 
L 287.689176 133.588504 
L 287.915806 133.882591 
L 288.142436 136.184693 
L 288.595695 135.9665 
L 289.502213 133.069898 
L 289.955473 140.317727 
L 290.182102 139.501872 
L 290.861991 135.700872 
L 291.088621 136.779192 
L 291.315251 132.95922 
L 291.54188 131.305374 
L 291.76851 127.235586 
L 292.448399 127.24191 
L 292.675029 125.082108 
L 293.128288 124.528718 
L 293.354918 126.758089 
L 294.034807 125.682931 
L 294.261436 124.980917 
L 294.488066 125.569091 
L 294.714696 126.612627 
L 294.941325 127.039528 
L 295.847844 126.520922 
L 296.074474 128.576371 
L 296.301103 129.291034 
L 296.527733 132.76 
L 297.434252 128.231688 
L 297.660881 127.991358 
L 297.887511 125.739851 
L 298.114141 121.904068 
L 298.79403 121.745956 
L 299.020659 122.334131 
L 299.247289 121.347516 
L 299.473919 121.837661 
L 299.700548 121.357002 
L 300.607067 122.391051 
L 300.833697 121.929366 
L 301.060326 123.161054 
L 301.286956 122.2614 
L 302.193475 116.300598 
L 302.420104 112.569168 
L 302.646734 113.682273 
L 302.873364 116.477683 
L 303.779882 124.863914 
L 304.006512 125.210178 
L 304.459771 123.377666 
L 305.13966 123.4251 
L 305.36629 121.644765 
L 305.819549 120.825748 
L 306.046179 119.526072 
L 306.952697 117.382081 
L 307.179327 117.846928 
L 307.632586 114.972462 
L 308.539105 113.837222 
L 308.765735 114.121823 
L 308.992364 113.941575 
L 309.218994 114.792215 
L 309.898883 114.589832 
L 310.125513 116.509305 
L 310.352142 112.705144 
L 310.578772 114.162932 
L 310.805402 114.653077 
L 311.485291 115.064167 
L 312.391809 110.172199 
L 313.071698 109.448048 
L 313.298328 109.42275 
L 313.751587 108.423486 
L 313.978217 107.367302 
L 314.658106 108.543651 
L 314.884736 114.216689 
L 315.111365 114.491803 
L 315.337995 118.28964 
L 315.564625 119.285742 
L 316.471143 117.233456 
L 316.697773 113.916278 
L 316.924403 113.887818 
L 317.151032 114.50129 
L 317.830921 111.658446 
L 318.51081 115.032544 
L 318.73744 116.04762 
L 319.417329 116.028647 
L 319.643959 116.465034 
L 319.870588 116.158298 
L 320.097218 116.398627 
L 321.003737 112.094834 
L 321.230366 112.205512 
L 321.456996 111.765962 
L 321.683626 110.678155 
L 321.910255 110.191172 
L 322.816774 100.985924 
L 323.043404 101.166171 
L 323.270033 100.369289 
L 323.496663 90.341861 
L 324.176552 88.251628 
L 324.403181 87.027845 
L 324.629811 83.675883 
L 324.856441 82.214933 
L 325.08307 83.647423 
L 325.762959 81.380105 
L 325.989589 82.053659 
L 326.216219 83.125655 
L 327.349367 80.501005 
L 327.575997 78.628966 
L 327.802626 86.022257 
L 328.029256 82.66397 
L 328.255886 81.471809 
L 328.935775 78.98946 
L 329.389034 74.84694 
L 329.615664 70.23641 
L 329.842293 69.6261 
L 330.748812 68.231557 
L 330.975442 71.716333 
L 331.202071 71.055427 
L 331.428701 68.320099 
L 332.10859 65.765018 
L 332.33522 68.013363 
L 332.788479 65.850399 
L 333.015109 76.469163 
L 333.694998 78.660588 
L 333.921627 75.340248 
L 334.148257 76.175076 
L 334.374887 78.847159 
L 334.601516 79.647203 
L 335.281405 74.084843 
L 335.508035 76.216185 
L 335.734665 73.427099 
L 335.961294 74.173385 
L 336.187924 71.485491 
L 336.867813 75.697579 
L 337.094443 83.584178 
L 337.321072 79.422685 
L 337.547702 86.600945 
L 337.774332 89.465924 
L 338.454221 92.63764 
L 338.90748 88.52358 
L 339.13411 90.111019 
L 339.360739 86.347966 
L 340.040628 83.119331 
L 340.267258 82.711403 
L 340.493887 78.366501 
L 340.720517 77.313478 
L 340.947147 74.52123 
L 341.627036 75.333923 
L 341.853665 71.545573 
L 342.080295 69.809509 
L 342.306925 70.67596 
L 342.533554 69.167577 
L 343.213443 66.821203 
L 343.440073 76.194049 
L 343.666703 77.111096 
L 343.893332 81.446512 
L 344.119962 79.093813 
L 344.799851 82.581752 
L 345.026481 82.477398 
L 345.25311 82.616536 
L 345.47974 84.747878 
L 345.70637 83.384958 
L 346.386259 82.942246 
L 346.612888 83.754939 
L 346.839518 84.985046 
L 347.066148 89.937096 
L 347.292777 87.676102 
L 347.972666 85.057777 
L 348.199296 85.200077 
L 348.425926 83.701181 
L 348.652555 88.754422 
L 348.879185 88.852452 
L 349.559074 90.120505 
L 349.785704 84.419007 
L 350.012333 83.688532 
L 350.465593 87.201768 
L 351.145482 87.859512 
L 351.825371 79.789504 
L 353.185149 83.432391 
L 353.411778 80.858337 
L 353.638408 83.846643 
L 354.318297 83.030788 
L 354.771556 81.130289 
L 354.998186 84.286193 
L 355.224816 85.810387 
L 355.904705 87.483206 
L 356.584594 81.965117 
L 356.811223 83.204711 
L 357.491112 85.595356 
L 357.717742 84.365249 
L 357.944371 78.157793 
L 358.171001 76.573517 
L 358.397631 73.534615 
L 359.07752 75.381357 
L 359.304149 73.952029 
L 359.530779 75.884151 
L 359.757409 70.103597 
L 359.984038 67.279726 
L 360.663927 67.877387 
L 360.890557 69.268768 
L 361.117187 64.003657 
L 361.343816 64.452693 
L 361.570446 63.867681 
L 362.250335 63.134044 
L 362.476965 63.077124 
L 362.703594 62.877904 
L 362.930224 65.521527 
L 363.156854 64.335691 
L 363.836743 70.581093 
L 364.290002 69.037925 
L 364.516632 69.281417 
L 364.743261 54.510646 
L 365.64978 55.342312 
L 365.87641 52.540577 
L 366.103039 52.515279 
L 366.329669 50.333342 
L 367.009558 52.414088 
L 367.462817 48.002779 
L 367.689447 50.719133 
L 367.916077 51.727884 
L 368.595966 52.461522 
L 368.822595 52.382466 
L 369.049225 53.99204 
L 369.275855 50.327017 
L 369.502484 54.567566 
L 370.182373 54.792084 
L 370.409003 49.697734 
L 370.635633 49.232886 
L 371.088892 47.762449 
L 371.768781 43.461818 
L 371.995411 45.612134 
L 372.22204 53.754873 
L 372.44867 53.833929 
L 372.6753 57.388274 
L 373.355189 61.021675 
L 373.581818 58.975713 
L 373.581818 58.975713 
" style="fill:none;stroke:#1f77b4;stroke-linecap:square;stroke-width:1.5;"/>
   </g>
   <g id="patch_3">
    <path d="M 54 230.4 
L 54 34.56 
" style="fill:none;stroke:#000000;stroke-linecap:square;stroke-linejoin:miter;stroke-width:0.8;"/>
   </g>
   <g id="patch_4">
    <path d="M 388.8 230.4 
L 388.8 34.56 
" style="fill:none;stroke:#000000;stroke-linecap:square;stroke-linejoin:miter;stroke-width:0.8;"/>
   </g>
   <g id="patch_5">
    <path d="M 54 230.4 
L 388.8 230.4 
" style="fill:none;stroke:#000000;stroke-linecap:square;stroke-linejoin:miter;stroke-width:0.8;"/>
   </g>
   <g id="patch_6">
    <path d="M 54 34.56 
L 388.8 34.56 
" style="fill:none;stroke:#000000;stroke-linecap:square;stroke-linejoin:miter;stroke-width:0.8;"/>
   </g>
   <g id="text_17">
    <!-- GOOG STOCK -->
    <defs>
     <path d="M 59.515625 10.40625 
L 59.515625 29.984375 
L 43.40625 29.984375 
L 43.40625 38.09375 
L 69.28125 38.09375 
L 69.28125 6.78125 
Q 63.578125 2.734375 56.6875 0.65625 
Q 49.8125 -1.421875 42 -1.421875 
Q 24.90625 -1.421875 15.25 8.5625 
Q 5.609375 18.5625 5.609375 36.375 
Q 5.609375 54.25 15.25 64.234375 
Q 24.90625 74.21875 42 74.21875 
Q 49.125 74.21875 55.546875 72.453125 
Q 61.96875 70.703125 67.390625 67.28125 
L 67.390625 56.78125 
Q 61.921875 61.421875 55.765625 63.765625 
Q 49.609375 66.109375 42.828125 66.109375 
Q 29.4375 66.109375 22.71875 58.640625 
Q 16.015625 51.171875 16.015625 36.375 
Q 16.015625 21.625 22.71875 14.15625 
Q 29.4375 6.6875 42.828125 6.6875 
Q 48.046875 6.6875 52.140625 7.59375 
Q 56.25 8.5 59.515625 10.40625 
z
" id="DejaVuSans-71"/>
     <path d="M 39.40625 66.21875 
Q 28.65625 66.21875 22.328125 58.203125 
Q 16.015625 50.203125 16.015625 36.375 
Q 16.015625 22.609375 22.328125 14.59375 
Q 28.65625 6.59375 39.40625 6.59375 
Q 50.140625 6.59375 56.421875 14.59375 
Q 62.703125 22.609375 62.703125 36.375 
Q 62.703125 50.203125 56.421875 58.203125 
Q 50.140625 66.21875 39.40625 66.21875 
z
M 39.40625 74.21875 
Q 54.734375 74.21875 63.90625 63.9375 
Q 73.09375 53.65625 73.09375 36.375 
Q 73.09375 19.140625 63.90625 8.859375 
Q 54.734375 -1.421875 39.40625 -1.421875 
Q 24.03125 -1.421875 14.8125 8.828125 
Q 5.609375 19.09375 5.609375 36.375 
Q 5.609375 53.65625 14.8125 63.9375 
Q 24.03125 74.21875 39.40625 74.21875 
z
" id="DejaVuSans-79"/>
     <path d="M 53.515625 70.515625 
L 53.515625 60.890625 
Q 47.90625 63.578125 42.921875 64.890625 
Q 37.9375 66.21875 33.296875 66.21875 
Q 25.25 66.21875 20.875 63.09375 
Q 16.5 59.96875 16.5 54.203125 
Q 16.5 49.359375 19.40625 46.890625 
Q 22.3125 44.4375 30.421875 42.921875 
L 36.375 41.703125 
Q 47.40625 39.59375 52.65625 34.296875 
Q 57.90625 29 57.90625 20.125 
Q 57.90625 9.515625 50.796875 4.046875 
Q 43.703125 -1.421875 29.984375 -1.421875 
Q 24.8125 -1.421875 18.96875 -0.25 
Q 13.140625 0.921875 6.890625 3.21875 
L 6.890625 13.375 
Q 12.890625 10.015625 18.65625 8.296875 
Q 24.421875 6.59375 29.984375 6.59375 
Q 38.421875 6.59375 43.015625 9.90625 
Q 47.609375 13.234375 47.609375 19.390625 
Q 47.609375 24.75 44.3125 27.78125 
Q 41.015625 30.8125 33.5 32.328125 
L 27.484375 33.5 
Q 16.453125 35.6875 11.515625 40.375 
Q 6.59375 45.0625 6.59375 53.421875 
Q 6.59375 63.09375 13.40625 68.65625 
Q 20.21875 74.21875 32.171875 74.21875 
Q 37.3125 74.21875 42.625 73.28125 
Q 47.953125 72.359375 53.515625 70.515625 
z
" id="DejaVuSans-83"/>
     <path d="M -0.296875 72.90625 
L 61.375 72.90625 
L 61.375 64.59375 
L 35.5 64.59375 
L 35.5 0 
L 25.59375 0 
L 25.59375 64.59375 
L -0.296875 64.59375 
z
" id="DejaVuSans-84"/>
     <path d="M 9.8125 72.90625 
L 19.671875 72.90625 
L 19.671875 42.09375 
L 52.390625 72.90625 
L 65.09375 72.90625 
L 28.90625 38.921875 
L 67.671875 0 
L 54.6875 0 
L 19.671875 35.109375 
L 19.671875 0 
L 9.8125 0 
z
" id="DejaVuSans-75"/>
    </defs>
    <g transform="translate(180.4275 28.56)scale(0.12 -0.12)">
     <use xlink:href="#DejaVuSans-71"/>
     <use x="77.490234" xlink:href="#DejaVuSans-79"/>
     <use x="156.201172" xlink:href="#DejaVuSans-79"/>
     <use x="234.912109" xlink:href="#DejaVuSans-71"/>
     <use x="312.402344" xlink:href="#DejaVuSans-32"/>
     <use x="344.189453" xlink:href="#DejaVuSans-83"/>
     <use x="407.666016" xlink:href="#DejaVuSans-84"/>
     <use x="468.75" xlink:href="#DejaVuSans-79"/>
     <use x="547.460938" xlink:href="#DejaVuSans-67"/>
     <use x="617.285156" xlink:href="#DejaVuSans-75"/>
    </g>
   </g>
  </g>
 </g>
 <defs>
  <clipPath id="pc86364cfdb">
   <rect height="195.84" width="334.8" x="54" y="34.56"/>
  </clipPath>
 </defs>
</svg>
